<mxfile host="app.diagrams.net" modified="2023-10-16T12:58:07.464Z" agent="Mozilla/5.0 (Windows NT 10.0; Win64; x64) AppleWebKit/537.36 (KHTML, like Gecko) Chrome/118.0.0.0 Safari/537.36 Edg/118.0.2088.46" etag="IcKZore8G5uuqSF0ajyF" version="21.2.9" type="device">
  <diagram name="Page-1" id="D8gVx_n0QD8tf8f8Ypey">
    <mxGraphModel dx="1148" dy="636" grid="1" gridSize="10" guides="1" tooltips="1" connect="1" arrows="1" fold="1" page="1" pageScale="1" pageWidth="827" pageHeight="1169" math="0" shadow="0">
      <root>
        <mxCell id="0" />
        <mxCell id="1" parent="0" />
        <mxCell id="JrDk5qaiKjgMLHOQlopK-28" style="edgeStyle=orthogonalEdgeStyle;rounded=0;orthogonalLoop=1;jettySize=auto;html=1;exitX=1;exitY=1;exitDx=0;exitDy=0;exitPerimeter=0;entryX=0;entryY=0.5;entryDx=0;entryDy=0;" edge="1" parent="1" source="JrDk5qaiKjgMLHOQlopK-1" target="JrDk5qaiKjgMLHOQlopK-4">
          <mxGeometry relative="1" as="geometry" />
        </mxCell>
        <mxCell id="JrDk5qaiKjgMLHOQlopK-32" style="edgeStyle=orthogonalEdgeStyle;rounded=0;orthogonalLoop=1;jettySize=auto;html=1;entryX=0;entryY=0.5;entryDx=0;entryDy=0;" edge="1" parent="1" source="JrDk5qaiKjgMLHOQlopK-1" target="JrDk5qaiKjgMLHOQlopK-8">
          <mxGeometry relative="1" as="geometry" />
        </mxCell>
        <mxCell id="JrDk5qaiKjgMLHOQlopK-33" style="edgeStyle=orthogonalEdgeStyle;rounded=0;orthogonalLoop=1;jettySize=auto;html=1;entryX=0;entryY=0.5;entryDx=0;entryDy=0;" edge="1" parent="1" source="JrDk5qaiKjgMLHOQlopK-1" target="JrDk5qaiKjgMLHOQlopK-10">
          <mxGeometry relative="1" as="geometry" />
        </mxCell>
        <mxCell id="JrDk5qaiKjgMLHOQlopK-34" style="edgeStyle=orthogonalEdgeStyle;rounded=0;orthogonalLoop=1;jettySize=auto;html=1;entryX=0;entryY=0.5;entryDx=0;entryDy=0;" edge="1" parent="1" source="JrDk5qaiKjgMLHOQlopK-1" target="JrDk5qaiKjgMLHOQlopK-16">
          <mxGeometry relative="1" as="geometry">
            <Array as="points">
              <mxPoint x="200" y="210" />
              <mxPoint x="200" y="310" />
            </Array>
          </mxGeometry>
        </mxCell>
        <mxCell id="JrDk5qaiKjgMLHOQlopK-35" style="edgeStyle=orthogonalEdgeStyle;rounded=0;orthogonalLoop=1;jettySize=auto;html=1;entryX=0;entryY=0.5;entryDx=0;entryDy=0;dashed=1;" edge="1" parent="1" source="JrDk5qaiKjgMLHOQlopK-1" target="JrDk5qaiKjgMLHOQlopK-18">
          <mxGeometry relative="1" as="geometry">
            <Array as="points">
              <mxPoint x="200" y="210" />
              <mxPoint x="200" y="400" />
            </Array>
          </mxGeometry>
        </mxCell>
        <mxCell id="JrDk5qaiKjgMLHOQlopK-1" value="User" style="shape=umlActor;html=1;verticalLabelPosition=bottom;verticalAlign=top;align=center;" vertex="1" parent="1">
          <mxGeometry x="50" y="180" width="30" height="60" as="geometry" />
        </mxCell>
        <mxCell id="JrDk5qaiKjgMLHOQlopK-4" value="" style="ellipse;whiteSpace=wrap;html=1;" vertex="1" parent="1">
          <mxGeometry x="220" y="470" width="100" height="40" as="geometry" />
        </mxCell>
        <mxCell id="JrDk5qaiKjgMLHOQlopK-5" value="Login" style="text;html=1;strokeColor=none;fillColor=none;align=center;verticalAlign=middle;whiteSpace=wrap;rounded=0;" vertex="1" parent="1">
          <mxGeometry x="240" y="475" width="60" height="30" as="geometry" />
        </mxCell>
        <mxCell id="JrDk5qaiKjgMLHOQlopK-6" value="" style="ellipse;whiteSpace=wrap;html=1;" vertex="1" parent="1">
          <mxGeometry x="220" y="520" width="100" height="40" as="geometry" />
        </mxCell>
        <mxCell id="JrDk5qaiKjgMLHOQlopK-7" value="Register" style="text;html=1;strokeColor=none;fillColor=none;align=center;verticalAlign=middle;whiteSpace=wrap;rounded=0;" vertex="1" parent="1">
          <mxGeometry x="240" y="525" width="60" height="30" as="geometry" />
        </mxCell>
        <mxCell id="JrDk5qaiKjgMLHOQlopK-8" value="" style="ellipse;whiteSpace=wrap;html=1;" vertex="1" parent="1">
          <mxGeometry x="320" y="120" width="100" height="40" as="geometry" />
        </mxCell>
        <mxCell id="JrDk5qaiKjgMLHOQlopK-9" value="Complete quests" style="text;html=1;strokeColor=none;fillColor=none;align=center;verticalAlign=middle;whiteSpace=wrap;rounded=0;" vertex="1" parent="1">
          <mxGeometry x="340" y="125" width="60" height="30" as="geometry" />
        </mxCell>
        <mxCell id="JrDk5qaiKjgMLHOQlopK-10" value="" style="ellipse;whiteSpace=wrap;html=1;" vertex="1" parent="1">
          <mxGeometry x="320" y="200" width="100" height="40" as="geometry" />
        </mxCell>
        <mxCell id="JrDk5qaiKjgMLHOQlopK-11" value="View leaderboard" style="text;html=1;strokeColor=none;fillColor=none;align=center;verticalAlign=middle;whiteSpace=wrap;rounded=0;" vertex="1" parent="1">
          <mxGeometry x="340" y="205" width="60" height="30" as="geometry" />
        </mxCell>
        <mxCell id="JrDk5qaiKjgMLHOQlopK-30" style="edgeStyle=orthogonalEdgeStyle;rounded=0;orthogonalLoop=1;jettySize=auto;html=1;entryX=1;entryY=0.5;entryDx=0;entryDy=0;" edge="1" parent="1" source="JrDk5qaiKjgMLHOQlopK-15" target="JrDk5qaiKjgMLHOQlopK-4">
          <mxGeometry relative="1" as="geometry" />
        </mxCell>
        <mxCell id="JrDk5qaiKjgMLHOQlopK-31" style="edgeStyle=orthogonalEdgeStyle;rounded=0;orthogonalLoop=1;jettySize=auto;html=1;entryX=1;entryY=0.5;entryDx=0;entryDy=0;" edge="1" parent="1" source="JrDk5qaiKjgMLHOQlopK-15" target="JrDk5qaiKjgMLHOQlopK-6">
          <mxGeometry relative="1" as="geometry" />
        </mxCell>
        <mxCell id="JrDk5qaiKjgMLHOQlopK-15" value="&amp;lt;&amp;lt;Service&amp;gt;&amp;gt;&lt;br&gt;Authentification" style="shape=umlActor;html=1;verticalLabelPosition=bottom;verticalAlign=top;align=center;" vertex="1" parent="1">
          <mxGeometry x="660" y="470" width="30" height="60" as="geometry" />
        </mxCell>
        <mxCell id="JrDk5qaiKjgMLHOQlopK-16" value="" style="ellipse;whiteSpace=wrap;html=1;" vertex="1" parent="1">
          <mxGeometry x="314" y="290" width="100" height="40" as="geometry" />
        </mxCell>
        <mxCell id="JrDk5qaiKjgMLHOQlopK-17" value="Collect points" style="text;html=1;strokeColor=none;fillColor=none;align=center;verticalAlign=middle;whiteSpace=wrap;rounded=0;" vertex="1" parent="1">
          <mxGeometry x="334" y="295" width="60" height="30" as="geometry" />
        </mxCell>
        <mxCell id="JrDk5qaiKjgMLHOQlopK-18" value="" style="ellipse;whiteSpace=wrap;html=1;" vertex="1" parent="1">
          <mxGeometry x="310" y="380" width="100" height="40" as="geometry" />
        </mxCell>
        <mxCell id="JrDk5qaiKjgMLHOQlopK-19" value="Collect Data" style="text;html=1;strokeColor=none;fillColor=none;align=center;verticalAlign=middle;whiteSpace=wrap;rounded=0;" vertex="1" parent="1">
          <mxGeometry x="330" y="385" width="60" height="30" as="geometry" />
        </mxCell>
        <mxCell id="JrDk5qaiKjgMLHOQlopK-43" style="edgeStyle=orthogonalEdgeStyle;rounded=0;orthogonalLoop=1;jettySize=auto;html=1;entryX=1;entryY=0.5;entryDx=0;entryDy=0;" edge="1" parent="1" source="JrDk5qaiKjgMLHOQlopK-22" target="JrDk5qaiKjgMLHOQlopK-18">
          <mxGeometry relative="1" as="geometry">
            <Array as="points">
              <mxPoint x="620" y="240" />
              <mxPoint x="620" y="400" />
            </Array>
          </mxGeometry>
        </mxCell>
        <mxCell id="JrDk5qaiKjgMLHOQlopK-44" style="edgeStyle=orthogonalEdgeStyle;rounded=0;orthogonalLoop=1;jettySize=auto;html=1;entryX=1;entryY=0.5;entryDx=0;entryDy=0;" edge="1" parent="1" source="JrDk5qaiKjgMLHOQlopK-22" target="JrDk5qaiKjgMLHOQlopK-16">
          <mxGeometry relative="1" as="geometry" />
        </mxCell>
        <mxCell id="JrDk5qaiKjgMLHOQlopK-22" value="&amp;lt;&amp;lt;Service&amp;gt;&amp;gt;&lt;br&gt;Backend" style="shape=umlActor;html=1;verticalLabelPosition=bottom;verticalAlign=top;align=center;" vertex="1" parent="1">
          <mxGeometry x="690" y="210" width="30" height="60" as="geometry" />
        </mxCell>
        <mxCell id="JrDk5qaiKjgMLHOQlopK-29" value="" style="endArrow=classic;html=1;rounded=0;entryX=0;entryY=0.5;entryDx=0;entryDy=0;" edge="1" parent="1" target="JrDk5qaiKjgMLHOQlopK-6">
          <mxGeometry width="50" height="50" relative="1" as="geometry">
            <mxPoint x="160" y="490" as="sourcePoint" />
            <mxPoint x="130" y="490" as="targetPoint" />
            <Array as="points">
              <mxPoint x="160" y="540" />
            </Array>
          </mxGeometry>
        </mxCell>
        <mxCell id="JrDk5qaiKjgMLHOQlopK-46" style="edgeStyle=orthogonalEdgeStyle;rounded=0;orthogonalLoop=1;jettySize=auto;html=1;entryX=1;entryY=0.5;entryDx=0;entryDy=0;" edge="1" parent="1" source="JrDk5qaiKjgMLHOQlopK-37" target="JrDk5qaiKjgMLHOQlopK-8">
          <mxGeometry relative="1" as="geometry" />
        </mxCell>
        <mxCell id="JrDk5qaiKjgMLHOQlopK-47" style="edgeStyle=orthogonalEdgeStyle;rounded=0;orthogonalLoop=1;jettySize=auto;html=1;entryX=1;entryY=0.5;entryDx=0;entryDy=0;" edge="1" parent="1" source="JrDk5qaiKjgMLHOQlopK-37" target="JrDk5qaiKjgMLHOQlopK-10">
          <mxGeometry relative="1" as="geometry" />
        </mxCell>
        <mxCell id="JrDk5qaiKjgMLHOQlopK-37" value="&amp;lt;&amp;lt;Service&amp;gt;&amp;gt;&lt;br&gt;Frontend" style="shape=umlActor;html=1;verticalLabelPosition=bottom;verticalAlign=top;align=center;" vertex="1" parent="1">
          <mxGeometry x="690" y="80" width="30" height="60" as="geometry" />
        </mxCell>
      </root>
    </mxGraphModel>
  </diagram>
</mxfile>
